<svg xmlns="http://www.w3.org/2000/svg" width="256" height="256" viewBox="0 0 100 100"><rect width="100" height="100" rx="50" fill="#262626"></rect><path d="M39.47 46.01L39.47 46.01Q39.47 43.91 38.21 42.89Q36.95 41.87 34.85 41.87L34.85 41.87Q33.41 41.87 32.21 42.23Q31.01 42.59 29.99 43.13L29.99 43.13L29.99 64.37Q29.39 64.55 28.31 64.70Q27.23 64.85 25.91 64.85L25.91 64.85Q23.21 64.85 22.01 63.98Q20.81 63.11 20.81 60.59L20.81 60.59L20.81 42.05Q20.81 40.49 21.47 39.53Q22.13 38.57 23.33 37.73L23.33 37.73Q25.25 36.35 28.28 35.51Q31.31 34.67 34.97 34.67L34.97 34.67Q41.51 34.67 45.08 37.55Q48.65 40.43 48.65 45.77L48.65 45.77L48.65 64.37Q47.99 64.55 46.91 64.70Q45.83 64.85 44.51 64.85L44.51 64.85Q41.81 64.85 40.64 63.98Q39.47 63.11 39.47 60.59L39.47 60.59L39.47 46.01ZM71.21 41.93L71.21 41.93Q67.97 41.93 65.69 44.00Q63.41 46.07 63.41 50.09L63.41 50.09Q63.41 54.11 65.60 56.09Q67.79 58.07 71.15 58.07L71.15 58.07Q73.07 58.07 74.54 57.56Q76.01 57.05 77.03 56.51L77.03 56.51Q78.05 57.29 78.62 58.16Q79.19 59.03 79.19 60.29L79.19 60.29Q79.19 62.57 76.79 63.95Q74.39 65.33 70.13 65.33L70.13 65.33Q66.53 65.33 63.56 64.37Q60.59 63.41 58.49 61.49Q56.39 59.57 55.25 56.72Q54.11 53.87 54.11 50.09L54.11 50.09Q54.11 46.19 55.37 43.31Q56.63 40.43 58.79 38.51Q60.95 36.59 63.83 35.63Q66.71 34.67 69.89 34.67L69.89 34.67Q74.03 34.67 76.40 36.17Q78.77 37.67 78.77 39.95L78.77 39.95Q78.77 41.03 78.26 41.93Q77.75 42.83 77.03 43.49L77.03 43.49Q75.95 42.89 74.48 42.41Q73.01 41.93 71.21 41.93Z" fill="#fff"></path></svg>